<?xml version="1.0" encoding="utf-8"?>
<svg version="1.1" xmlns:xlink="http://www.w3.org/1999/xlink" width="48px" height="48px" xmlns="http://www.w3.org/2000/svg">
  <g transform="matrix(1 0 0 1 -11 -64 )">
    <path d="M 24 47  C 36.7025 47  47 36.7025  47 24  C 47 11.2975  36.7025 1  24 1  C 11.2975 1  1 11.2975  1 24  C 1 36.7025  11.2975 47  24 47  L 24 48  C 10.7452 48  0 37.2548  0 24  C 0 10.7452  10.7452 0  24 0  C 37.2548 0  48 10.7452  48 24  C 48 37.2548  37.2548 48  24 48  L 24 47  Z " fill-rule="nonzero" fill="#ffffff" stroke="none" transform="matrix(1 0 0 1 11 64 )" />
  </g>
</svg>