<?xml version="1.0" encoding="utf-8"?>
<svg version="1.1" xmlns:xlink="http://www.w3.org/1999/xlink" width="140px" height="120px" xmlns="http://www.w3.org/2000/svg">
  <g transform="matrix(1 0 0 1 -485 -272 )">
    <path d="M 487 275  A 1 1 0 0 1 488 274 L 622 274  A 1 1 0 0 1 623 275 L 623 389  A 1 1 0 0 1 622 390 L 488 390  A 1 1 0 0 1 487 389 L 487 275  Z " fill-rule="nonzero" fill="#ffffff" stroke="none" fill-opacity="0" />
    <path d="M 486 275  A 2 2 0 0 1 488 273 L 622 273  A 2 2 0 0 1 624 275 L 624 389  A 2 2 0 0 1 622 391 L 488 391  A 2 2 0 0 1 486 389 L 486 275  Z " stroke-width="2" stroke-dasharray="34,16" stroke="#00c96d" fill="none" />
  </g>
</svg>