<?xml version="1.0" encoding="utf-8"?>
<svg version="1.1" xmlns:xlink="http://www.w3.org/1999/xlink" width="21px" height="19px" xmlns="http://www.w3.org/2000/svg">
  <g transform="matrix(1 0 0 1 -8 -10 )">
    <path d="M 17.71875 19  C 17.71875 18.67158203125  17.57109375 18.37470703125  17.33525390625 18.15947265625  C 17.1568359375 17.998046875  16.927148437499998 17.8830078125  16.670800781249998 17.83662109375  C 16.516992187499998 17.8087890625  16.40625 17.690039062500002  16.40625 17.5490234375  L 16.40625 10.728320312500001  C 16.40625 7.778125000000001  13.73818359375 5.3326171875  10.47744140625 5.343750000000001  C 7.226953125 5.354882812500001  4.59375 7.742871093750002  4.59375 10.6875  L 4.59375 17.5490234375  C 4.59375 17.6900390625  4.4830078124999995 17.8087890625  4.3291992187499995 17.83662109375  C 3.73037109375 17.94794921875  3.28125 18.426660156249998  3.28125 19  L 17.71875 19  Z M 8.203125 13.112597656250001  L 11.63408203125 8.609375  L 11.23623046875 11.824902343749999  L 12.796875 11.824902343749999  L 9.367968750000001 16.328125  L 9.765820312499999 13.112597656250001  L 8.203125 13.112597656250001  Z M 11.15625 3.265625  C 11.15625 3.5940429687499997  10.86298828125 3.859375  10.5 3.859375  C 10.137011718750001 3.859375  9.84375 3.5940429687499997  9.84375 3.265625  L 9.84375 0.59375  C 9.84375 0.26533203125  10.137011718750001 0  10.5 0  C 10.86298828125 0  11.15625 0.26533203125  11.15625 0.59375  L 11.15625 3.265625  Z M 5.98212890625 4.683203125  C 6.16259765625 4.967089843750001  6.05595703125 5.328906250000001  5.7421875 5.4940429687500005  C 5.42841796875 5.65732421875  5.0264648437499995 5.560839843750001  4.84599609375 5.276953125  L 3.36943359375 2.963183593750001  C 3.18896484375 2.679296875000001  3.2956054687500003 2.3156250000000007  3.609375 2.152343750000001  C 3.92314453125 1.9890625000000008  4.3250976562500005 2.085546875000001  4.50556640625 2.369433593750001  L 5.98212890625 4.683203125  Z M 15.01787109375 4.683203125  C 14.83740234375 4.967089843750001  14.944042968749999 5.328906250000001  15.2578125 5.4940429687500005  C 15.57158203125 5.65732421875  15.97353515625 5.560839843750001  16.15400390625 5.276953125  L 17.63056640625 2.963183593750001  C 17.81103515625 2.679296875000001  17.704394531250003 2.3156250000000007  17.390625 2.152343750000001  C 17.07685546875 1.9890625000000008  16.674902343750002 2.085546875000001  16.49443359375 2.369433593750001  L 15.01787109375 4.683203125  Z M 3.6873046875 7.5294921875  C 4.0379882812500005 7.61298828125  4.2451171875 7.9376953125  4.15283203125 8.25498046875  C 4.0584960937500005 8.572265625  3.699609375 8.75966796875  3.34892578125 8.67431640625  L 0.4962890625 7.98408203125  C 0.14560546875 7.89873046875  -0.0615234375 7.5740234375  0.03076171875 7.2567382812500005  C 0.12509765625 6.939453125  0.483984375 6.75205078125  0.83466796875 6.83740234375  L 3.6873046875 7.5294921875  Z M 17.310644531250002 7.52763671875  C 16.962011718750002 7.61298828125  16.7548828125 7.9376953125  16.84716796875 8.25498046875  C 16.941503906250002 8.572265625  17.300390625000002 8.75966796875  17.65107421875 8.67431640625  L 20.503710937500003 7.9822265625  C 20.85439453125 7.896875  21.0615234375 7.57216796875  20.9671875 7.2548828125  C 20.872851562500003 6.9375976562499995  20.513964843750003 6.7501953125  20.16328125 6.8355468749999995  L 17.310644531250002 7.52763671875  Z " fill-rule="nonzero" fill="#fb6547" stroke="none" transform="matrix(1 0 0 1 8 10 )" />
  </g>
</svg>