<?xml version="1.0" encoding="utf-8"?>
<svg version="1.1" xmlns:xlink="http://www.w3.org/1999/xlink" width="13px" height="11px" xmlns="http://www.w3.org/2000/svg">
  <g transform="matrix(1 0 0 1 -138 -48 )">
    <path d="M 0.17333333874999937 0  L 12.65333333875 0  L 12.65333333875 11  L 0.17333333874999937 11  L 0.17333333874999937 0  Z M 11.61333333875 7.060666671874999  L 9.93858666125 5.725  L 6.421999999999999 8.539  L 4.137813338749999 6.8063333281250005  L 1.2133333387499998 9.080333328125  L 1.2133333387499998 10  L 11.61333333875 10  L 11.61333333875 7.060666671874999  Z M 11.61333333875 5.761333328125  L 11.61333333875 1  L 1.2133333387499994 1  L 1.2133333387499994 7.794333328124999  L 4.12984 5.526666671874999  L 6.404319999999999 7.251999999999998  L 9.93789333875 4.425333328124999  L 11.61333333875 5.761333328125  Z M 4.50666666125 1.6666666718750003  C 5.368230870986038 1.6666666718750003  6.066666661249999 2.3382395471288104  6.066666661249999 3.1666666718750003  C 6.066666661249999 3.99509379662119  5.368230870986038 4.666666671875  4.50666666125 4.666666671875  C 3.645102451513962 4.666666671875  2.9466666612499997 3.99509379662119  2.9466666612499997 3.1666666718750003  C 2.9466666612499997 2.3382395471288104  3.645102451513962 1.6666666718750003  4.50666666125 1.6666666718750003  Z M 4.50666666125 2.6666666718750003  C 4.219478591337987 2.6666666718750003  3.98666666125 2.8905242969596037  3.98666666125 3.1666666718750003  C 3.98666666125 3.442809046790397  4.219478591337987 3.6666666718750007  4.50666666125 3.6666666718750007  C 4.793854731162012 3.6666666718750007  5.026666661249999 3.442809046790397  5.026666661249999 3.1666666718750003  C 5.026666661249999 2.8905242969596037  4.793854731162012 2.6666666718750003  4.50666666125 2.6666666718750003  Z " fill-rule="nonzero" fill="#1677ff" stroke="none" transform="matrix(1 0 0 1 138 48 )" />
  </g>
</svg>