<?xml version="1.0" encoding="utf-8"?>
<svg version="1.1" xmlns:xlink="http://www.w3.org/1999/xlink" width="16px" height="14px" xmlns="http://www.w3.org/2000/svg">
  <g transform="matrix(1 0 0 1 -48 -9 )">
    <path d="M 16 3.66667  C 16 2.73333  15.2667 2  14.3333 2  L 11.7333 2  L 10.9333 0.3999999999999999  C 10.8 0.19999999999999996  10.6 0  10.3333 0  L 5.66667 0  C 5.4 0  5.2 0.13332999999999995  5.06667 0.3999999999999999  L 4.26667 2  L 1.6666700000000003 2  C 0.7333330000000002 2  0 2.73333  0 3.66667  L 0 12.3333  C 0 13.2667  0.7333330000000002 14  1.6666700000000003 14  L 14.3333 14  C 15.2667 14  16 13.2667  16 12.3333  L 16 3.66667  Z M 14.6667 3.66667  L 14.6667 12.3333  C 14.6667 12.5333  14.5333 12.6667  14.3333 12.6667  L 1.6666700000000003 12.6667  C 1.4666700000000001 12.6667  1.3333300000000001 12.5333  1.3333300000000001 12.3333  L 1.3333300000000001 3.66667  C 1.3333300000000001 3.4666699999999997  1.4666700000000001 3.33333  1.6666700000000003 3.33333  L 4.66667 3.33333  C 4.93333 3.33333  5.13333 3.2  5.26667 2.93333  L 6.06667 1.3333300000000001  L 9.93333 1.3333300000000001  L 10.7333 2.93333  C 10.8667 3.13333  11.0667 3.33333  11.3333 3.33333  L 14.3333 3.33333  C 14.5333 3.33333  14.6667 3.4666699999999997  14.6667 3.66667  Z " fill-rule="nonzero" fill="#ffffff" stroke="none" transform="matrix(1 0 0 1 48 9 )" />
  </g>
</svg>