<?xml version="1.0" encoding="utf-8"?>
<svg version="1.1" xmlns:xlink="http://www.w3.org/1999/xlink" width="13px" height="16px" xmlns="http://www.w3.org/2000/svg">
  <g transform="matrix(1 0 0 1 -362 -8 )">
    <path d="M 12.1377 0.518438  C 11.9757 0.451223  11.8021 0.416625  11.6267 0.416626  L 4.22336 0.416626  C 4.03379 0.417282  3.84654 0.458353  3.6741 0.5371  C 3.50166 0.615848  3.3480000000000003 0.73046  3.2233599999999996 0.873293  L 0.86002 3.56996  C 0.76336 3.67817  0.7099599999999999 3.8182  0.7100200000000001 3.96329  L 0.7100200000000001 5.80663  C 0.7109000000000001 5.96549  0.7743899999999999 6.11759  0.8867300000000001 6.22992  C 0.9990600000000001 6.34226  1.15116 6.40575  1.3100200000000002 6.40663  L 2.18336 6.40663  L 2.18336 7.40663  L 1.3100200000000002 7.40663  C 1.15116 7.4075  0.9990600000000001 7.471  0.8867300000000001 7.58333  C 0.7743899999999999 7.69566  0.7109000000000001 7.84777  0.7100200000000001 8.00663  L 0.7100200000000001 14.28  C 0.7100200000000001 14.6336  0.8505000000000001 14.9727  1.1005500000000001 15.2228  C 1.35059 15.4728  1.68973 15.6133  2.04336 15.6133  L 11.6267 15.6133  C 11.9803 15.6133  12.3194 15.4728  12.5695 15.2228  C 12.8195 14.9727  12.96 14.6336  13 14.28  L 13 1.75329  C 12.9605 1.57792  12.9263 1.40418  12.8595 1.24202  C 12.7927 1.07987  12.6945 0.932493  12.5707 0.808328  C 12.4468 0.684163  12.2997 0.585652  12.1377 0.518438  Z M 11.7634 1.75663  L 11.7634 14.28  C 11.7634 14.3162  11.749 14.351  11.7233 14.3766  C 11.6977 14.4022  11.6629 14.4166  11.6267 14.4166  L 2.04669 14.4166  C 2.01044 14.4166  1.97568 14.4022  1.95005 14.3766  C 1.92442 14.351  1.9100199999999998 14.3162  1.9100199999999998 14.28  L 1.9100199999999998 8.61329  L 2.78336 8.61329  C 2.94249 8.61329  3.0951000000000004 8.55008  3.2076200000000004 8.43756  C 3.3201400000000003 8.32503  3.3833599999999993 8.17242  3.3833599999999993 8.01329  L 3.3833599999999993 5.80663  C 3.3838000000000004 5.72771  3.36858 5.64949  3.3385800000000003 5.57649  C 3.30859 5.5035  3.2644099999999994 5.43718  3.2085999999999997 5.38138  C 3.1528 5.32557  3.08648 5.28139  3.01349 5.2514  C 2.94049 5.2214  2.86227 5.20618  2.78336 5.20663  L 1.9100199999999998 5.20663  L 1.9100199999999998 4.20663  L 4.12002 1.66663  C 4.1329 1.65191  4.14879 1.64012  4.16662 1.63207  C 4.18445 1.62402  4.20379 1.61989  4.22336 1.61996  L 11.6267 1.61996  C 11.6629 1.61996  11.6977 1.63436  11.7233 1.65999  C 11.749 1.68562  11.7634 1.72038  11.7634 1.75663  Z " fill-rule="nonzero" fill="#ffffff" stroke="none" transform="matrix(1 0 0 1 362 8 )" />
  </g>
</svg>