<?xml version="1.0" encoding="utf-8"?>
<svg version="1.1" xmlns:xlink="http://www.w3.org/1999/xlink" width="15px" height="15px" xmlns="http://www.w3.org/2000/svg">
  <g transform="matrix(1 0 0 1 -20 -24 )">
    <path d="M 3.29495 1.3999499999999996  L 3.29495 14.3  C 3.29495 14.600000000000001  2.9949500000000002 14.899999999999999  2.6949500000000004 14.899999999999999  L 1.29495 14.899999999999999  C 0.9949500000000002 14.899999999999999  0.6949500000000004 14.600000000000001  0.6949500000000004 14.3  L 0.6949500000000004 1.29995  C 0.6949500000000004 0.9999500000000001  0.9949500000000002 0.6999500000000003  1.29495 0.6999500000000003  L 2.6949500000000004 0.6999500000000003  C 2.9949500000000002 0.7999499999999999  3.29495 1.0999499999999998  3.29495 1.3999499999999996  Z M 5.3949 14.5  L 5.3949 1.3999499999999996  C 5.3949 1.0999499999999998  5.594900000000001 0.9999500000000001  5.8949 1.1999500000000003  L 14.494900000000001 7.599999999999999  C 14.794899999999998 7.800000000000001  14.794899999999998 8.1  14.494900000000001 8.3  L 5.8949 14.7  C 5.594900000000001 14.899999999999999  5.3949 14.8  5.3949 14.5  Z " fill-rule="nonzero" fill="#ffffff" stroke="none" transform="matrix(1 0 0 1 20 24 )" />
  </g>
</svg>