<?xml version="1.0" encoding="utf-8"?>
<svg version="1.1" xmlns:xlink="http://www.w3.org/1999/xlink" width="14px" height="13px" xmlns="http://www.w3.org/2000/svg">
  <g transform="matrix(1 0 0 1 -13 -9 )">
    <path d="M 1.03422 10.6119  L 7.7958300000000005 10.6119  C 7.7958300000000005 10.2954  7.921540000000001 9.9919  8.14532 9.7681  C 8.36909 9.5444  8.67259 9.4187  8.98906 9.4187  L 10.1823 9.4187  C 10.4987 9.4187  10.8022 9.5444  11.026 9.7681  C 11.2498 9.9919  11.3755 10.2954  11.3755 10.6119  L 12.9665 10.6119  C 13.072 10.6119  13.1731 10.6538  13.2477 10.7284  C 13.3223 10.803  13.3642 10.9041  13.3642 11.0096  L 13.3642 11.4074  C 13.3642 11.5129  13.3223 11.614  13.2477 11.6886  C 13.1731 11.7632  13.072 11.8051  12.9665 11.8051  L 11.3755 11.8051  C 11.3755 12.1216  11.2498 12.4251  11.026 12.6488  C 10.8022 12.8726  10.4987 12.9983  10.1823 12.9983  L 8.98906 12.9983  C 8.67259 12.9983  8.36909 12.8726  8.14532 12.6488  C 7.921540000000001 12.4251  7.7958300000000005 12.1216  7.7958300000000005 11.8051  L 1.03422 11.8051  C 0.92873 11.8051  0.8275600000000001 11.7632  0.7529699999999999 11.6886  C 0.67838 11.614  0.6364700000000001 11.5129  0.6364700000000001 11.4074  L 0.6364700000000001 11.0096  C 0.6364700000000001 10.9041  0.67838 10.803  0.7529699999999999 10.7284  C 0.8275600000000001 10.6538  0.92873 10.6119  1.03422 10.6119  Z M 9.7845 10.6119  L 9.3868 10.6119  C 9.2813 10.6119  9.1801 10.6538  9.1056 10.7284  C 9.031 10.803  8.98906 10.9041  8.98906 11.0096  L 8.98906 11.4074  C 8.98906 11.5129  9.031 11.614  9.1056 11.6886  C 9.1801 11.7632  9.2813 11.8051  9.3868 11.8051  L 9.7845 11.8051  C 9.8368 11.8051  9.8885 11.7948  9.9367 11.7748  C 9.985 11.7548  10.0289 11.7255  10.0658 11.6886  C 10.1027 11.6517  10.132 11.6078  10.152 11.5596  C 10.172 11.5113  10.1823 11.4596  10.1823 11.4074  L 10.1823 11.0096  C 10.1823 10.9574  10.172 10.9057  10.152 10.8574  C 10.132 10.8092  10.1027 10.7653  10.0658 10.7284  C 10.0289 10.6914  9.985 10.6621  9.9367 10.6422  C 9.8885 10.6222  9.8368 10.6119  9.7845 10.6119  Z M 1.03422 1.8615599999999997  L 7.000349999999999 1.8615599999999997  C 7.000349999999999 1.5451000000000001  7.126060000000001 1.2416  7.349830000000001 1.01782  C 7.57361 0.7940499999999999  7.877110000000001 0.6683300000000001  8.19357 0.6683300000000001  L 9.3868 0.6683300000000001  C 9.7033 0.6683300000000001  10.0068 0.7940499999999999  10.2305 1.01782  C 10.4543 1.2416  10.58 1.5451000000000001  10.58 1.8615599999999997  L 12.9665 1.8615599999999997  C 13.072 1.8615599999999997  13.1731 1.9034700000000002  13.2477 1.9780600000000002  C 13.3223 2.05265  13.3642 2.15381  13.3642 2.2593  L 13.3642 2.65704  C 13.3642 2.70928  13.3539 2.761  13.3339 2.80925  C 13.314 2.85751  13.2847 2.90136  13.2477 2.93829  C 13.2108 2.97522  13.1669 3.0045200000000003  13.1187 3.0245100000000003  C 13.0704 3.0445  13.0187 3.0547899999999997  12.9665 3.0547899999999997  L 10.58 3.0547899999999997  C 10.58 3.37125  10.4543 3.6747500000000004  10.2305 3.89852  C 10.0068 4.1223  9.7033 4.24801  9.3868 4.24801  L 8.19357 4.24801  C 7.877110000000001 4.24801  7.57361 4.1223  7.349830000000001 3.89852  C 7.126060000000001 3.6747500000000004  7.000349999999999 3.37125  7.000349999999999 3.0547899999999997  L 1.03422 3.0547899999999997  C 0.9819800000000001 3.0547899999999997  0.93026 3.0445  0.88201 3.0245100000000003  C 0.83375 3.0045200000000003  0.7899 2.97522  0.7529699999999999 2.93829  C 0.71604 2.90136  0.6867399999999999 2.85751  0.66675 2.80925  C 0.64676 2.761  0.6364700000000001 2.70928  0.6364700000000001 2.65704  L 0.6364700000000001 2.2593  C 0.6364700000000001 2.15381  0.67838 2.05265  0.7529699999999999 1.9780600000000002  C 0.8275600000000001 1.9034700000000002  0.92873 1.8615599999999997  1.03422 1.8615599999999997  Z M 8.98906 1.8615599999999997  L 8.59131 1.8615599999999997  C 8.48583 1.8615599999999997  8.38466 1.9034700000000002  8.31007 1.9780600000000002  C 8.23548 2.05265  8.19357 2.15381  8.19357 2.2593  L 8.19357 2.65704  C 8.19357 2.70928  8.20386 2.761  8.22385 2.80925  C 8.24384 2.85751  8.27313 2.90136  8.31007 2.93829  C 8.347 2.97522  8.39085 3.0045200000000003  8.4391 3.0245100000000003  C 8.48736 3.0445  8.53908 3.0547899999999997  8.59131 3.0547899999999997  L 8.98906 3.0547899999999997  C 9.0413 3.0547899999999997  9.093 3.0445  9.1413 3.0245100000000003  C 9.1895 3.0045200000000003  9.2334 2.97522  9.2703 2.93829  C 9.3072 2.90136  9.3365 2.85751  9.3565 2.80925  C 9.3765 2.761  9.3868 2.70928  9.3868 2.65704  L 9.3868 2.2593  C 9.3868 2.15381  9.3449 2.05265  9.2703 1.9780600000000002  C 9.1957 1.9034700000000002  9.0945 1.8615599999999997  8.98906 1.8615599999999997  Z M 1.03422 6.23672  L 3.0229299999999997 6.23672  C 3.0229299999999997 5.92026  3.1486400000000003 5.61676  3.3724100000000004 5.39298  C 3.59619 5.16921  3.899689999999999 5.0435  4.21615 5.0435  L 5.40938 5.0435  C 5.72584 5.0435  6.02934 5.16921  6.25312 5.39298  C 6.47689 5.61676  6.6026 5.92026  6.6026 6.23672  L 12.9665 6.23672  C 13.0187 6.23672  13.0704 6.24701  13.1187 6.267  C 13.1669 6.28699  13.2108 6.31628  13.2477 6.35322  C 13.2847 6.39015  13.314 6.434  13.3339 6.48225  C 13.3539 6.53051  13.3642 6.582229999999999  13.3642 6.63446  L 13.3642 7.032209999999999  C 13.3642 7.137689999999998  13.3223 7.23886  13.2477 7.31345  C 13.1731 7.388040000000001  13.072 7.42995  12.9665 7.42995  L 6.6026 7.42995  C 6.6026 7.746409999999999  6.47689 8.04991  6.25312 8.27369  C 6.02934 8.49746  5.72584 8.62317  5.40938 8.62317  L 4.21615 8.62317  C 3.899689999999999 8.62317  3.59619 8.49746  3.3724100000000004 8.27369  C 3.1486400000000003 8.04991  3.0229299999999997 7.746409999999999  3.0229299999999997 7.42995  L 1.03422 7.42995  C 0.92873 7.42995  0.8275600000000001 7.388040000000001  0.7529699999999999 7.31345  C 0.67838 7.23886  0.6364700000000001 7.137689999999998  0.6364700000000001 7.032209999999999  L 0.6364700000000001 6.63446  C 0.6364700000000001 6.582229999999999  0.64676 6.53051  0.66675 6.48225  C 0.6867399999999999 6.434  0.71604 6.39015  0.7529699999999999 6.35322  C 0.7899 6.31628  0.83375 6.28699  0.88201 6.267  C 0.93026 6.24701  0.9819800000000001 6.23672  1.03422 6.23672  Z M 5.01164 6.23672  L 4.61389 6.23672  C 4.56166 6.23672  4.50994 6.24701  4.46168 6.267  C 4.41343 6.28699  4.36958 6.31628  4.33265 6.35322  C 4.29571 6.39015  4.26642 6.434  4.24643 6.48225  C 4.22644 6.53051  4.21615 6.582229999999999  4.21615 6.63446  L 4.21615 7.032209999999999  C 4.21615 7.137689999999998  4.25806 7.23886  4.33265 7.31345  C 4.40724 7.388040000000001  4.50841 7.42995  4.61389 7.42995  L 5.01164 7.42995  C 5.06387 7.42995  5.11559 7.4196599999999995  5.16385 7.39967  C 5.2121 7.3796800000000005  5.25595 7.350390000000001  5.29288 7.31345  C 5.32982 7.27652  5.35911 7.23267  5.3791 7.184419999999999  C 5.39909 7.13616  5.40938 7.084440000000001  5.40938 7.032209999999999  L 5.40938 6.63446  C 5.40938 6.582229999999999  5.39909 6.53051  5.3791 6.48225  C 5.35911 6.434  5.32982 6.39015  5.29288 6.35322  C 5.25595 6.31628  5.2121 6.28699  5.16385 6.267  C 5.11559 6.24701  5.06387 6.23672  5.01164 6.23672  Z " fill-rule="nonzero" fill="#ffffff" stroke="none" transform="matrix(1 0 0 1 13 9 )" />
  </g>
</svg>