<?xml version="1.0" encoding="utf-8"?>
<svg version="1.1" xmlns:xlink="http://www.w3.org/1999/xlink" width="8px" height="8px" xmlns="http://www.w3.org/2000/svg">
  <g transform="matrix(1 0 0 1 -52 -13 )">
    <path d="M 4.60046 4.466620000000001  L 5.667120000000001 4.466620000000001  C 5.93379 4.466620000000001  6.2005 4.26662  6.2005 3.93328  C 6.2005 3.5999499999999998  6.000500000000001 3.3999500000000005  5.667120000000001 3.3999500000000005  L 4.4671199999999995 3.3999500000000005  L 4.4671199999999995 2.3332800000000002  C 4.4671199999999995 2.0666200000000003  4.26712 1.79995  3.93379 1.79995  C 3.60046 1.79995  3.40046 1.9999500000000001  3.40046 2.3332800000000002  L 3.40046 3.533289999999999  L 2.3337899999999996 3.533289999999999  C 2.06712 3.533289999999999  1.8004600000000002 3.7332800000000006  1.8004600000000002 4.06662  C 1.8004600000000002 4.3999500000000005  2.0004600000000003 4.59995  2.3337899999999996 4.59995  L 3.5337899999999998 4.59995  L 3.5337899999999998 5.666600000000001  C 3.5337899999999998 5.933299999999999  3.73379 6.199999999999999  4.067119999999999 6.199999999999999  C 4.400460000000001 6.199999999999999  4.60046 6  4.60046 5.666600000000001  L 4.60046 4.466620000000001  Z M 2.86712 7.3332999999999995  C 2.86712 7  2.60046 6.8666  2.3337899999999996 6.8666  L 1.1337900000000003 6.8666  L 1.1337900000000003 5.666600000000001  C 1.1337900000000003 5.4  0.9337900000000001 5.1333  0.60046 5.1333  C 0.26712000000000025 5.1333  0.1337900000000003 5.4  0.1337900000000003 5.666600000000001  L 0.1337900000000003 6.8666  C 0.1337900000000003 7.4  0.60046 7.8666  1.1337900000000003 7.8666  L 2.3337899999999996 7.8666  C 2.60046 7.8666  2.86712 7.666600000000001  2.86712 7.3332999999999995  Z M 7.8004999999999995 5.666600000000001  C 7.867100000000001 5.4  7.6005 5.1333  7.3338 5.1333  C 7.0671 5.1333  6.8004999999999995 5.3332999999999995  6.8004999999999995 5.666600000000001  L 6.8004999999999995 6.8666  L 5.60046 6.8666  C 5.3337900000000005 6.8666  5.067119999999999 7.066599999999999  5.067119999999999 7.4  C 5.067119999999999 7.7333  5.26712 7.933299999999999  5.60046 7.933299999999999  L 6.8004999999999995 7.933299999999999  C 7.3338 7.933299999999999  7.8004999999999995 7.4666  7.8004999999999995 6.933299999999999  L 7.8004999999999995 5.666600000000001  Z M 7.9338 1.13328  C 7.867100000000001 0.5999499999999998  7.400499999999999 0.1999500000000003  6.867100000000001 0.1999500000000003  L 5.667120000000001 0.1999500000000003  C 5.400460000000001 0.1999500000000003  5.133789999999999 0.3999499999999996  5.133789999999999 0.7332799999999997  C 5.133789999999999 1.0666200000000003  5.3337900000000005 1.2666199999999996  5.667120000000001 1.2666199999999996  L 6.867100000000001 1.2666199999999996  L 6.867100000000001 2.3332800000000002  C 6.867100000000001 2.5999499999999998  7.0671 2.86662  7.400499999999999 2.86662  C 7.7338000000000005 2.86662  7.9338 2.66662  7.9338 2.3332800000000002  L 7.9338 1.13328  Z M 0.1337900000000003 2.3332800000000002  C 0.1337900000000003 2.5999499999999998  0.4004599999999998 2.86662  0.6671199999999997 2.86662  C 0.9337900000000001 2.86662  1.2004599999999996 2.66662  1.2004599999999996 2.3332800000000002  L 1.2004599999999996 1.13328  L 2.40046 1.13328  C 2.6671199999999997 1.13328  2.93379 0.9332799999999999  2.93379 0.5999499999999998  C 2.93379 0.26661999999999964  2.60046 0.1999500000000003  2.3337899999999996 0.1999500000000003  L 1.1337900000000003 0.1999500000000003  C 0.60046 0.1999500000000003  0.1337900000000003 0.66662  0.1337900000000003 1.1999500000000003  L 0.1337900000000003 2.3332800000000002  Z " fill-rule="nonzero" fill="#ffffff" stroke="none" transform="matrix(1 0 0 1 52 13 )" />
  </g>
</svg>