<?xml version="1.0" encoding="utf-8"?>
<svg version="1.1" xmlns:xlink="http://www.w3.org/1999/xlink" width="16px" height="16px" xmlns="http://www.w3.org/2000/svg">
  <g transform="matrix(1 0 0 1 -1079 -8 )">
    <path d="M 0.7274302222222221 7.818151111111111  C 0.7274302222222221 3.704702222222222  3.993973333333333 0.36360711111111105  8.031795555555554 0.36360711111111105  C 10.701244444444443 0.36360711111111105  13.060888888888888 1.832702222222222  14.33511111111111 4.047608888888889  L 15.44231111111111 3.774151111111111  C 15.501866666666665 3.759422222222222  15.564177777777775 3.7600088888888887  15.623466666666666 3.7758399999999996  C 15.682755555555556 3.7916711111111105  15.737066666666665 3.82224  15.781333333333334 3.864702222222222  C 15.825599999999998 3.9071644444444438  15.858399999999998 3.9601422222222222  15.87671111111111 4.018702222222222  C 15.895022222222224 4.077253333333333  15.898222222222222 4.139484444444444  15.885955555555554 4.199608888888889  L 15.172533333333332 7.717057777777777  C 15.145866666666667 7.847804444444444  15.08248888888889 7.968240000000001  14.989866666666668 8.064213333333333  C 14.897155555555555 8.160186666666666  14.779022222222222 8.227724444444444  14.649244444444443 8.25888  C 14.517155555555556 8.290702222222222  14.379111111111111 8.287262222222221  14.248711111111112 8.248906666666667  C 14.1184 8.21055111111111  14.000444444444444 8.138622222222223  13.906666666666666 8.040337777777777  L 11.341244444444444 5.347608888888889  C 11.297333333333333 5.301466666666666  11.266399999999999 5.244622222222222  11.251377777777778 5.182746666666667  C 11.236355555555555 5.12088  11.237866666666665 5.056142222222221  11.255733333333332 4.995031111111111  C 11.2736 4.93392  11.30711111111111 4.87856  11.353155555555555 4.834506666666666  C 11.399111111111111 4.790444444444444  11.455822222222222 4.759226666666666  11.5176 4.743973333333333  L 12.850666666666667 4.414151111111111  C 11.789599999999998 2.8377866666666667  10.015466666666667 1.818151111111111  8.031795555555554 1.818151111111111  C 4.804888888888889 1.818151111111111  2.181973333333333 4.5006933333333325  2.181973333333333 7.818151111111111  C 2.181973333333333 11.135644444444443  4.804888888888889 13.818133333333334  8.031795555555554 13.818133333333334  C 9.327822222222222 13.818844444444444  10.585866666666666 13.379911111111111  11.600177777777777 12.573066666666666  C 11.674933333333332 12.512444444444442  11.760977777777777 12.4672  11.853422222222223 12.440088888888889  C 11.945777777777778 12.412977777777778  12.042577777777778 12.404444444444444  12.13831111111111 12.415022222222222  C 12.234044444444443 12.425688888888887  12.326666666666666 12.45511111111111  12.410844444444443 12.501777777777777  C 12.495111111111111 12.548533333333333  12.569155555555554 12.611466666666667  12.628888888888888 12.686933333333332  C 12.688533333333332 12.762488888888887  12.73271111111111 12.849155555555555  12.758666666666667 12.941866666666666  C 12.784622222222222 13.034577777777777  12.79191111111111 13.131555555555554  12.780088888888887 13.22711111111111  C 12.768266666666666 13.322666666666665  12.7376 13.414844444444443  12.689866666666665 13.498488888888888  C 12.642133333333334 13.582133333333331  12.578222222222221 13.655377777777776  12.501955555555554 13.714133333333333  C 11.231022222222222 14.723911111111109  9.655466666666666 15.273333333333333  8.03216 15.272711111111109  C 3.993973333333333 15.272711111111109  0.7274302222222221 11.931644444444444  0.7274302222222221 7.818151111111111  Z " fill-rule="nonzero" fill="#ffffff" stroke="none" transform="matrix(1 0 0 1 1079 8 )" />
  </g>
</svg>