<?xml version="1.0" encoding="utf-8"?>
<svg version="1.1" xmlns:xlink="http://www.w3.org/1999/xlink" width="6px" height="4px" xmlns="http://www.w3.org/2000/svg">
  <g transform="matrix(1 0 0 1 -367 -10 )">
    <path d="M 5.576599999999999 0.8033700000000001  C 5.4643 0.6910400000000001  5.312200000000001 0.6275499999999998  5.1533 0.6266699999999998  C 4.994199999999999 0.6266699999999998  4.8416 0.68988  4.729100000000001 0.8024100000000001  C 4.6165 0.91493  4.5533 1.0675400000000002  4.5533 1.22667  L 4.5533 2.7  C 4.5533 2.8591300000000004  4.6165 3.01175  4.729100000000001 3.12427  C 4.8416 3.23679  4.994199999999999 3.3  5.1533 3.3  C 5.3124 3.3  5.4651 3.23679  5.5776 3.12427  C 5.690099999999999 3.01175  5.753299999999999 2.8591300000000004  5.753299999999999 2.7  L 5.753299999999999 1.22667  C 5.7524 1.0678100000000001  5.6889 0.9157099999999998  5.576599999999999 0.8033700000000001  Z M 1.1542500000000002 0.8024100000000001  C 1.0417300000000003 0.68988  0.8891200000000001 0.6266699999999998  0.7299899999999999 0.6266699999999998  C 0.5714300000000003 0.6275499999999998  0.4196799999999996 0.6911499999999999  0.30787999999999993 0.8035800000000002  C 0.19606999999999974 0.91601  0.13332000000000033 1.06812  0.13332000000000033 1.22667  L 0.13332000000000033 2.7  C 0.12716999999999956 2.78233  0.13808000000000042 2.86505  0.16535999999999973 2.94297  C 0.19263999999999992 3.0208899999999996  0.23571000000000009 3.09234  0.2918700000000003 3.15285  C 0.3480299999999996 3.2133599999999998  0.41608 3.26164  0.4917499999999997 3.29465  C 0.5674200000000003 3.32766  0.6490900000000002 3.34469  0.7316500000000001 3.34469  C 0.8142100000000001 3.34469  0.89588 3.32766  0.9715499999999997 3.29465  C 1.0472299999999999 3.26164  1.1152699999999998 3.2133599999999998  1.17143 3.15285  C 1.2275999999999998 3.09234  1.2706600000000003 3.0208899999999996  1.2979500000000002 2.94297  C 1.3252300000000004 2.86505  1.3361400000000003 2.78233  1.3299899999999996 2.7  L 1.3299899999999996 1.22667  C 1.3299899999999996 1.0675400000000002  1.2667700000000002 0.91493  1.1542500000000002 0.8024100000000001  Z M 3.3601899999999993 0.8068399999999998  C 3.25 0.6947800000000002  3.1004400000000008 0.6301399999999999  2.94332 0.6266699999999998  C 2.86369 0.62534  2.7845899999999997 0.6398799999999998  2.7106399999999997 0.6694399999999998  C 2.63668 0.6989999999999998  2.5693599999999996 0.7429800000000002  2.51258 0.7988300000000002  C 2.4558 0.8546800000000001  2.41071 0.9212699999999998  2.37993 0.9947300000000001  C 2.34915 1.06818  2.333310000000001 1.14703  2.3333200000000005 1.22667  L 2.3333200000000005 2.7  C 2.3333200000000005 2.8591300000000004  2.3965300000000003 3.01175  2.50906 3.12427  C 2.62158 3.23679  2.774190000000001 3.3  2.93332 3.3  C 3.0924499999999995 3.3  3.2450600000000005 3.23679  3.3575800000000005 3.12427  C 3.47011 3.01175  3.53332 2.8591300000000004  3.53332 2.7  L 3.53332 1.22667  C 3.5324899999999992 1.0695199999999998  3.470370000000001 0.9188900000000002  3.3601899999999993 0.8068399999999998  Z " fill-rule="nonzero" fill="#ffffff" stroke="none" transform="matrix(1 0 0 1 367 10 )" />
  </g>
</svg>